<?xml version="1.0" encoding="UTF-8"?>
<svg id="Layer_2" data-name="Layer 2" xmlns="http://www.w3.org/2000/svg" viewBox="0 0 157.21 213.52">
  <defs>
    <style>
      .cls-1 {
        fill: #73434f;
      }

      .cls-2 {
        fill: #450920;
      }

      .cls-3 {
        fill: #450a20;
      }

      .cls-4 {
        fill: #6d3e4a;
      }
    </style>
  </defs>
  <g id="Layer_2-2" data-name="Layer 2">
    <g id="Layer_1-2" data-name="Layer 1-2">
      <g>
        <path class="cls-2" d="m157.18,19.44c-.06-.67-.22-1-.92-1.21-6.64-2.02-13.27-4.1-19.89-6.17-3.66-1.14-7.29-2.35-10.96-3.46-5.37-1.62-10.73-3.22-16.12-4.76-4.27-1.22-8.56-2.36-12.86-3.47-.98-.25-2.03-.25-3.07-.37-.33.57-.63,1.08-.93,1.59-.42,1.34-.85,2.69-1.26,4.04-1.36,4.48-2.72,8.97-4.05,13.46-1.48,5.01-2.94,10.03-4.36,15.06-.25.9-.61,1.2-1.58,1.2-20.86-.04-41.72-.01-62.58-.06-2.07-.01-3.27,1.3-4.65,2.37-3.6,2.78-7.16,5.62-10.71,8.46-1.1.87-2.17,1.77-3.24,2.67v69.01c1.56-.56,3.12-1.13,4.69-1.64.19-.06.58.17.75.38.25.3.38.71.57,1.07.96,1.88,1.93,2.37,4.01,2,1.19-.21,2.29-1.59,2.29-3.29,0-4.48-.13-8.95-.15-13.43,0-1.31.17-2.62.26-4.02,2.04,0,4.03-.02,6.01.01.64,0,.98.31.98,1.08-.04,5.87.06,11.74-.08,17.6-.03,1.43-.83,2.83-1.25,4.26-.1.34-.72.76.06,1.07h7.39c-.67-1.7-1.41-3.23-1.87-4.84-.32-1.13-.34-2.36-.35-3.55-.03-3.04.03-6.08.03-9.12v-6.53h6.05c.93,0,.75.71.75,1.26v14.87c0,1.78.74,3.23,2.26,4.07,1.81,1,3.68.63,5.33-.46,1.49-.99,1.48-2.71,1.52-4.24.1-3.66.06-7.33.06-10.99v-4.5c2.11,0,4.1-.03,6.08.04.26.01.72.56.72.86.04,5.2.16,10.41-.04,15.61-.08,2.09-.27,4.27-1.64,6.15-1.7,2.34-4.06,3.42-6.71,4.05-.98.23-2.01.26-3.16.4,1.93,3.41,2.16,6.63-1.22,9.26.96,1.01,1.97,1.86,2.71,2.91,2.07,2.92.98,7.47-1.87,9.46-2.1,1.46-4.38,2.06-6.91,2.03-2.96-.04-5.91.02-8.87.04-.09.01-.18.01-.27.01-.97.11-1-.46-1-1.22.02-8.37.02-16.75.02-25.12-1.27.67-2.47,1.52-3.81,1.98-4.03,1.39-7.96,1.33-11.29-1.74-.86-.79-1.57-1.71-2.05-2.76v92.71h93.77c2.98-2.37,5.96-4.75,8.94-7.12,1.7-1.35,3.33-2.8,5.12-4.02,0,0,.02-.01.03-.02v-77.07c-3.93,0-7.85.06-11.77-.03-1.27-.03-2,.39-2.71,1.42-1.97,2.85-4.1,5.59-6.11,8.41-.19.27-.16.92.04,1.2,2.89,4.15,5.84,8.27,8.76,12.4.11.17.15.38.32.8-.98.04-1.86.08-2.74.12h-.27c-1.42-.01-2.83-.04-4.24-.02-.68.01-1.08-.21-1.46-.83-1.38-2.23-2.87-4.39-4.31-6.59-.12-.17-.18-.38-.34-.76-1.69,2.57-3.19,4.76-4.59,7.02-.48.79-.99,1.19-1.94,1.18-2.11-.03-4.23.03-6.35.05-.09-.01-.18-.03-.27-.03h-.02c-.07-.24-.27-.59-.18-.72,2.88-4.05,5.75-8.1,8.71-12.09.64-.86.51-1.45-.03-2.18-2.04-2.76-4.03-5.55-6.12-8.26-.38-.49-1.11-.8-1.74-1-5.3-1.66-8.43-5.15-9.4-10.67-.74-4.27.06-8.16,2.64-11.58,1.83-2.42,4.41-3.95,7.38-4.53,4.09-.79,7.96.08,11.48,2.26,1.89,1.16,3.13,2.99,4.14,4.96.12.24.1.55.15.89-2.21.69-4.36,1.37-6.48,2.04-1.09-2.35-2.61-3.71-5.07-3.96-3.12-.31-5.39.89-6.63,3.74-1.48,3.41-.91,6.75,1.6,9.3,2.81,2.86,7.23,2.11,9.23-.96.84-1.29,1.54-1.53,2.85-.93,1.21.55,2.49.98,3.78,1.34.86.24.8.63.49,1.26-1.45,3.01-3.66,5.19-6.86,6.3-.15.05-.26.2-.41.32,1.16,1.64,2.3,3.26,3.55,5.03,1.52-2.22,3-4.35,4.43-6.51.35-.54.64-.99,1.42-.89,1.15.15,1.35-.58,1.35-1.55v-22.37c.37-.02.73-.06,1.08-.06,5.12-.01,10.25,0,15.37-.03.73,0,1.14.12,1.27.63V35.37h-15.97c.98-4.09,1.89-8.07,2.87-12.02,1.1-4.42,2.27-8.83,3.4-13.24.35-1.35.6-1.54,1.99-1.16,4.63,1.27,9.3,2.41,13.86,3.91,7.59,2.49,15.12,5.19,22.65,7.86,5.37,1.9,10.7,3.89,16.05,5.83,1.8.65,2.54.39,3.27-1.42.74-1.81,1.37-3.66,1.2-5.69Zm-89.74,114.08c.3,2.7.35,5.33-.59,7.87-1.34,3.61-4.05,6.02-7.56,7.38-5.16,2-10.17,1.59-14.72-1.74-3.05-2.23-4.69-5.31-5.18-9.08-.61-4.77.83-8.82,4.33-12,1.37-1.25,3.18-2.09,4.91-2.85,1.87-.81,1.98-.73,2-2.78.01-2.04,0-4.08,0-6.12v-15.39h-.01c2.02,0,3.88-.02,5.75,0,.73.01,1.05.36,1.05,1.16-.03,7.03-.02,14.07-.04,21.11,0,.27-.27.6-.18.8.23.5.52,1.29.89,1.36,4.73.84,8.83,5.62,9.35,10.28Z"/>
        <path class="cls-2" d="m107.86,119.01v-13.96h-3.76c-1.95,0-3.91.03-5.87-.01-.79-.02-1.15.22-1.1,1.06.05.94.01,1.89.01,2.93,2.55,0,5,.05,7.44-.02,1.06-.03,1.42.3,1.35,1.35-.08,1.2-.06,2.41-.02,3.62.03.83-.3,1.08-1.1,1.07-2.17-.04-4.33.02-6.5-.02-.84-.02-1.23.21-1.17,1.12.06.9.01,1.82.01,2.86h10.71Z"/>
        <path class="cls-4" d="m18.13,149.65c.09,0,.18,0,.27,0-.09,0-.18,0-.27,0Z"/>
        <path class="cls-1" d="m69.88,149.63c.09,0,.18.02.27.03-.09,0-.18-.02-.27-.03Z"/>
        <path class="cls-2" d="m23.89,138.16c1.61.23,3.07.35,4.48.68.95.22,1.62.85,1.55,2.04-.07,1.11-.42,1.95-1.55,2.18-1.18.24-2.39.4-3.59.45-.28,0-.82-.53-.84-.84-.09-1.4-.04-2.81-.04-4.52h0Z"/>
        <path class="cls-3" d="m23.89,128.31h1.97c2.11,0,2.91.64,3.07,2.13.21,2.01-1.23,2.34-3.05,2.62-.28.04-.58-.02-.87,0-.87.1-1.18-.27-1.13-1.14.06-1.15.02-2.31.02-3.62h-.01Z"/>
        <path class="cls-2" d="m60.39,136.36c.67,4.46-3.56,7.27-7.22,7.25-3.1,0-6.94-2.93-6.79-7.73.07-2.01.83-3.67,2.18-5.15,1.69-1.86,3.85-1.7,6.04-1.68,3.44.03,5.79,2.98,5.79,7.31h0Z"/>
      </g>
    </g>
  </g>
</svg>